<svg width="27" height="27" viewBox="0 0 27 27" fill="none" xmlns="http://www.w3.org/2000/svg">
<path d="M24.75 23.9062C24.75 24.3675 24.3675 24.75 23.9062 24.75H3.09375C2.6325 24.75 2.25 24.3675 2.25 23.9062C2.25 23.445 2.6325 23.0625 3.09375 23.0625H23.9062C24.3675 23.0625 24.75 23.445 24.75 23.9062Z" fill="#777577"/>
<path d="M17.3137 5.08498L5.23125 17.1675C4.77 17.6287 4.0275 17.6287 3.5775 17.1675H3.56625C2.0025 15.5925 2.0025 13.05 3.56625 11.4862L11.61 3.44248C13.185 1.86748 15.7275 1.86748 17.3025 3.44248C17.7637 3.88123 17.7637 4.63498 17.3137 5.08498Z" fill="#777577"/>
<path d="M23.4225 9.55123L19.9912 6.11999C19.53 5.65874 18.7875 5.65874 18.3375 6.11999L6.255 18.2025C5.79375 18.6525 5.79375 19.395 6.255 19.8562L9.68624 23.2987C11.2612 24.8625 13.8037 24.8625 15.3787 23.2987L23.4112 15.255C25.0087 13.68 25.0087 11.1262 23.4225 9.55123ZM14.355 19.71L12.9937 21.0825C12.7125 21.3637 12.2512 21.3637 11.9587 21.0825C11.6775 20.8012 11.6775 20.34 11.9587 20.0475L13.3312 18.675C13.6012 18.405 14.0737 18.405 14.355 18.675C14.6362 18.9562 14.6362 19.44 14.355 19.71ZM18.8212 15.2437L16.0762 18C15.795 18.27 15.3337 18.27 15.0412 18C14.76 17.7187 14.76 17.2575 15.0412 16.965L17.7975 14.2087C18.0675 13.9387 18.54 13.9387 18.8212 14.2087C19.1025 14.5012 19.1025 14.9625 18.8212 15.2437Z" fill="#777577"/>
</svg>
