<svg width="27" height="27" viewBox="0 0 27 27" fill="none" xmlns="http://www.w3.org/2000/svg">
<path d="M18.2138 2.25H8.78625C4.69125 2.25 2.25 4.69125 2.25 8.78625V18.2138C2.25 21.375 3.70125 23.5462 6.255 24.3675C6.9975 24.6262 7.8525 24.75 8.78625 24.75H18.2138C19.1475 24.75 20.0025 24.6262 20.745 24.3675C23.2987 23.5462 24.75 21.375 24.75 18.2138V8.78625C24.75 4.69125 22.3088 2.25 18.2138 2.25ZM23.0625 18.2138C23.0625 20.6213 22.1175 22.14 20.2162 22.77C19.125 20.6213 16.5375 19.0912 13.5 19.0912C10.4625 19.0912 7.88625 20.61 6.78375 22.77H6.7725C4.89375 22.1625 3.9375 20.6325 3.9375 18.225V8.78625C3.9375 5.61375 5.61375 3.9375 8.78625 3.9375H18.2138C21.3863 3.9375 23.0625 5.61375 23.0625 8.78625V18.2138Z" fill="#777577"/>
<path d="M13.5 9C11.2725 9 9.4725 10.8 9.4725 13.0275C9.4725 15.255 11.2725 17.0662 13.5 17.0662C15.7275 17.0662 17.5275 15.255 17.5275 13.0275C17.5275 10.8 15.7275 9 13.5 9Z" fill="#777577"/>
</svg>
