<svg width="27" height="27" viewBox="0 0 27 27" fill="none" xmlns="http://www.w3.org/2000/svg">
<path d="M21.0488 10.6762C20.9363 10.6762 20.8238 10.6537 20.7113 10.6087C20.2838 10.4174 20.0925 9.92244 20.2725 9.49494C20.4863 9.01119 20.3625 8.30244 19.9688 7.71744C19.575 7.12119 18.9788 6.71619 18.4388 6.74994C17.9438 6.74994 17.595 6.37869 17.5838 5.91744C17.5838 5.44494 17.955 5.07369 18.4163 5.06244C19.575 5.03994 20.6663 5.70369 21.375 6.77244C22.095 7.85244 22.2638 9.14619 21.825 10.1587C21.69 10.4849 21.375 10.6762 21.0488 10.6762Z" fill="#777577"/>
<path d="M24.5475 11.79C24.4688 11.79 24.4013 11.7788 24.3225 11.7563C23.8725 11.6325 23.6138 11.1713 23.7375 10.7213C24.165 9.19127 23.805 7.36877 22.7813 5.83877C21.7575 4.30877 20.205 3.28502 18.6188 3.09377C18.1575 3.03752 17.8313 2.62127 17.8875 2.16002C17.9438 1.69877 18.3713 1.36127 18.8213 1.42877C20.88 1.67627 22.8825 2.98127 24.1763 4.91627C25.47 6.85127 25.9088 9.19127 25.3575 11.1938C25.2563 11.5425 24.9188 11.79 24.5475 11.79Z" fill="#777577"/>
<path d="M19.26 13.2525C19.26 13.59 18.9788 13.8712 18.6413 13.8712H3.85876C3.52126 13.8712 3.24001 13.59 3.24001 13.2525C3.24001 12.915 3.52126 12.6337 3.85876 12.6337H4.69126L5.00626 11.1487C5.29876 9.70871 5.91751 8.39246 8.37001 8.39246H14.1413C16.5938 8.39246 17.2013 9.71996 17.505 11.1487L17.82 12.6337H18.6525C18.9788 12.6337 19.26 12.915 19.26 13.2525Z" fill="#777577"/>
<path d="M19.6088 17.8987C19.485 16.5487 19.125 15.0974 16.4925 15.0974H6.00751C3.37501 15.0974 3.01501 16.5487 2.89126 17.8987L2.43001 22.9049C2.37376 23.5237 2.57626 24.1537 3.00376 24.6262C3.44251 25.0987 4.05001 25.3687 4.71376 25.3687H6.25501C7.58251 25.3687 7.84126 24.6037 8.01001 24.1087L8.17876 23.6137C8.37001 23.0512 8.41501 22.9049 9.15751 22.9049H13.365C14.1075 22.9049 14.13 22.9837 14.3438 23.6137L14.5125 24.1087C14.6813 24.6149 14.9288 25.3687 16.2675 25.3687H17.8088C18.4613 25.3687 19.08 25.0987 19.5188 24.6262C19.9463 24.1537 20.1488 23.5349 20.0925 22.9049L19.6088 17.8987ZM8.78626 19.6087H6.32251C5.98501 19.6087 5.70376 19.3274 5.70376 18.9899C5.70376 18.6524 5.98501 18.3712 6.32251 18.3712H8.78626C9.12376 18.3712 9.40501 18.6524 9.40501 18.9899C9.40501 19.3274 9.12376 19.6087 8.78626 19.6087ZM16.1775 19.6087H13.7138C13.3763 19.6087 13.095 19.3274 13.095 18.9899C13.095 18.6524 13.3763 18.3712 13.7138 18.3712H16.1775C16.515 18.3712 16.7963 18.6524 16.7963 18.9899C16.7963 19.3274 16.515 19.6087 16.1775 19.6087Z" fill="#777577"/>
</svg>
