<svg width="27" height="27" viewBox="0 0 27 27" fill="none" xmlns="http://www.w3.org/2000/svg">
<path d="M7.875 2.25H6.75C3.375 2.25 2.25 4.26375 2.25 6.75V7.875V23.625C2.25 24.5588 3.3075 25.0875 4.05 24.525L5.97375 23.085C6.42375 22.7475 7.05375 22.7925 7.45875 23.1975L9.32625 25.0763C9.765 25.515 10.485 25.515 10.9237 25.0763L12.8138 23.1863C13.2075 22.7925 13.8375 22.7475 14.2762 23.085L16.2 24.525C16.9425 25.0763 18 24.5475 18 23.625V4.5C18 3.2625 19.0125 2.25 20.25 2.25H7.875ZM6.71625 15.7613C6.0975 15.7613 5.59125 15.255 5.59125 14.6363C5.59125 14.0175 6.0975 13.5113 6.71625 13.5113C7.335 13.5113 7.84125 14.0175 7.84125 14.6363C7.84125 15.255 7.335 15.7613 6.71625 15.7613ZM6.71625 11.2613C6.0975 11.2613 5.59125 10.755 5.59125 10.1363C5.59125 9.5175 6.0975 9.01125 6.71625 9.01125C7.335 9.01125 7.84125 9.5175 7.84125 10.1363C7.84125 10.755 7.335 11.2613 6.71625 11.2613ZM13.5 15.48H10.125C9.66375 15.48 9.28125 15.0975 9.28125 14.6363C9.28125 14.175 9.66375 13.7925 10.125 13.7925H13.5C13.9613 13.7925 14.3438 14.175 14.3438 14.6363C14.3438 15.0975 13.9613 15.48 13.5 15.48ZM13.5 10.98H10.125C9.66375 10.98 9.28125 10.5975 9.28125 10.1363C9.28125 9.675 9.66375 9.2925 10.125 9.2925H13.5C13.9613 9.2925 14.3438 9.675 14.3438 10.1363C14.3438 10.5975 13.9613 10.98 13.5 10.98Z" fill="#777577"/>
<path d="M20.2613 2.25V3.9375C21.0038 3.9375 21.7125 4.24125 22.23 4.7475C22.77 5.29875 23.0625 6.0075 23.0625 6.75V9.4725C23.0625 10.305 22.6912 10.6875 21.8475 10.6875H19.6875V4.51125C19.6875 4.19625 19.9463 3.9375 20.2613 3.9375V2.25ZM20.2613 2.25C19.0125 2.25 18 3.2625 18 4.51125V12.375H21.8475C23.625 12.375 24.75 11.25 24.75 9.4725V6.75C24.75 5.5125 24.2438 4.3875 23.4338 3.56625C22.6125 2.75625 21.4988 2.26125 20.2613 2.25C20.2725 2.25 20.2613 2.25 20.2613 2.25Z" fill="#777577"/>
</svg>
