<svg width="27" height="27" viewBox="0 0 27 27" fill="none" xmlns="http://www.w3.org/2000/svg">
<path d="M6.45752 18C6.58127 17.4487 6.35627 16.6613 5.96252 16.2675L3.22877 13.5337C2.37377 12.6788 2.03627 11.7675 2.28377 10.98C2.54252 10.1925 3.34127 9.6525 4.53377 9.45L8.04377 8.865C8.55002 8.775 9.16877 8.325 9.40502 7.86375L11.34 3.9825C11.9025 2.86875 12.6675 2.25 13.5 2.25C14.3325 2.25 15.0975 2.86875 15.66 3.9825L17.595 7.86375C17.7413 8.15625 18.045 8.4375 18.3713 8.62875L6.25502 20.745C6.09752 20.9025 5.82752 20.7563 5.87252 20.5312L6.45752 18Z" fill="#777577"/>
<path d="M21.0375 16.2675C20.6325 16.6725 20.4075 17.4488 20.5425 18L21.3188 21.3863C21.645 22.7925 21.4425 23.85 20.745 24.3563C20.4638 24.5588 20.1263 24.66 19.7325 24.66C19.1588 24.66 18.4838 24.4463 17.7413 24.0075L14.445 22.05C13.9275 21.7463 13.0725 21.7463 12.555 22.05L9.25877 24.0075C8.01002 24.7388 6.94127 24.8625 6.25502 24.3563C5.99627 24.165 5.80502 23.9063 5.68127 23.5688L19.3613 9.88876C19.8788 9.37126 20.61 9.13501 21.3188 9.25876L22.455 9.45001C23.6475 9.65251 24.4463 10.1925 24.705 10.98C24.9525 11.7675 24.615 12.6788 23.76 13.5338L21.0375 16.2675Z" fill="#777577"/>
</svg>
