<svg width="27" height="27" viewBox="0 0 27 27" fill="none" xmlns="http://www.w3.org/2000/svg">
<path d="M17.775 2.48626C17.3138 2.02501 16.515 2.34001 16.515 2.98126V6.90751C16.515 8.55001 17.91 9.91126 19.6088 9.91126C20.6775 9.92251 22.1625 9.92251 23.4338 9.92251C24.075 9.92251 24.4125 9.16876 23.9625 8.71876C22.3425 7.08751 19.44 4.15126 17.775 2.48626Z" fill="#777577"/>
<path d="M23.0625 11.4637H19.8113C17.145 11.4637 14.9738 9.2925 14.9738 6.62625V3.375C14.9738 2.75625 14.4675 2.25 13.8488 2.25H9.07875C5.61375 2.25 2.8125 4.5 2.8125 8.51625V18.4837C2.8125 22.5 5.61375 24.75 9.07875 24.75H17.9213C21.3862 24.75 24.1875 22.5 24.1875 18.4837V12.5887C24.1875 11.97 23.6812 11.4637 23.0625 11.4637ZM12.9375 19.9688H8.4375C7.97625 19.9688 7.59375 19.5863 7.59375 19.125C7.59375 18.6637 7.97625 18.2812 8.4375 18.2812H12.9375C13.3988 18.2812 13.7812 18.6637 13.7812 19.125C13.7812 19.5863 13.3988 19.9688 12.9375 19.9688ZM15.1875 15.4688H8.4375C7.97625 15.4688 7.59375 15.0863 7.59375 14.625C7.59375 14.1637 7.97625 13.7812 8.4375 13.7812H15.1875C15.6488 13.7812 16.0312 14.1637 16.0312 14.625C16.0312 15.0863 15.6488 15.4688 15.1875 15.4688Z" fill="#777577"/>
</svg>
