<svg width="27" height="27" viewBox="0 0 27 27" fill="none" xmlns="http://www.w3.org/2000/svg">
<path d="M24.1313 15.345V16.47C24.1313 16.7737 23.895 17.0212 23.58 17.0325H21.9375C21.3413 17.0325 20.8013 16.5937 20.7563 16.0087C20.7225 15.66 20.8575 15.3337 21.0825 15.1087C21.285 14.895 21.5663 14.7825 21.87 14.7825H23.5688C23.895 14.7937 24.1313 15.0412 24.1313 15.345Z" fill="#777577"/>
<path d="M20.2388 14.2762C19.6763 14.8275 19.4063 15.6487 19.6313 16.5037C19.9238 17.55 20.9475 18.2137 22.0275 18.2137H23.0063C23.625 18.2137 24.1313 18.72 24.1313 19.3387V19.5525C24.1313 21.8812 22.23 23.7825 19.9013 23.7825H6.98626C4.65751 23.7825 2.75626 21.8812 2.75626 19.5525V11.9812C2.75626 10.5975 3.42001 9.37122 4.44376 8.60622C5.15251 8.06622 6.03001 7.75122 6.98626 7.75122H19.9013C22.23 7.75122 24.1313 9.65247 24.1313 11.9812V12.4762C24.1313 13.095 23.625 13.6012 23.0063 13.6012H21.8588C21.2288 13.6012 20.655 13.8487 20.2388 14.2762Z" fill="#777577"/>
<path d="M18.225 5.4225C18.5288 5.72625 18.27 6.19875 17.8425 6.19875L9.20251 6.1875C8.70751 6.1875 8.44875 5.58 8.80875 5.23125L10.6313 3.3975C12.1725 1.8675 14.67 1.8675 16.2113 3.3975L18.18 5.38875C18.1913 5.4 18.2138 5.41125 18.225 5.4225Z" fill="#777577"/>
</svg>
