<svg width="40" height="40" viewBox="0 0 40 40" fill="none" xmlns="http://www.w3.org/2000/svg">
<g clip-path="url(#clip0_226_384)">
<path d="M36.5333 27.9167C35.9833 32.35 32.35 35.9833 27.9167 36.5333C25.2333 36.8667 22.7333 36.1333 20.7833 34.7C19.6667 33.8833 19.9333 32.15 21.2667 31.75C26.2833 30.2333 30.2333 26.2667 31.7667 21.25C32.1667 19.9333 33.9 19.6667 34.7167 20.7667C36.1333 22.7333 36.8667 25.2333 36.5333 27.9167Z" fill="#292D32"/>
<path d="M16.65 3.33334C9.29999 3.33334 3.33333 9.30001 3.33333 16.65C3.33333 24 9.29999 29.9667 16.65 29.9667C24 29.9667 29.9667 24 29.9667 16.65C29.95 9.30001 24 3.33334 16.65 3.33334ZM15.0833 14.7833L19.1 16.1833C20.55 16.7 21.25 17.7167 21.25 19.2833C21.25 21.0833 19.8167 22.5667 18.0667 22.5667H17.9167V22.65C17.9167 23.3333 17.35 23.9 16.6667 23.9C15.9833 23.9 15.4167 23.3333 15.4167 22.65V22.55C13.5667 22.4667 12.0833 20.9167 12.0833 18.9833C12.0833 18.3 12.65 17.7333 13.3333 17.7333C14.0167 17.7333 14.5833 18.3 14.5833 18.9833C14.5833 19.5833 15.0167 20.0667 15.55 20.0667H18.05C18.4333 20.0667 18.7333 19.7167 18.7333 19.2833C18.7333 18.7 18.6333 18.6667 18.25 18.5333L14.2333 17.1333C12.8 16.6333 12.0833 15.6167 12.0833 14.0333C12.0833 12.2333 13.5167 10.75 15.2667 10.75H15.4167V10.6833C15.4167 10 15.9833 9.43334 16.6667 9.43334C17.35 9.43334 17.9167 10 17.9167 10.6833V10.7833C19.7667 10.8667 21.25 12.4167 21.25 14.35C21.25 15.0333 20.6833 15.6 20 15.6C19.3167 15.6 18.75 15.0333 18.75 14.35C18.75 13.75 18.3167 13.2667 17.7833 13.2667H15.2833C14.9 13.2667 14.6 13.6167 14.6 14.05C14.5833 14.6167 14.6833 14.65 15.0833 14.7833Z" fill="#292D32"/>
</g>
<defs>
<clipPath id="clip0_226_384">
<rect width="40" height="40" fill="white"/>
</clipPath>
</defs>
</svg>
