<svg width="40" height="40" viewBox="0 0 40 40" fill="none" xmlns="http://www.w3.org/2000/svg">
<g clip-path="url(#clip0_226_197)">
<path d="M20 3.33334C10.8 3.33334 3.33331 10.8 3.33331 20C3.33331 29.2 10.8 36.6667 20 36.6667C29.2 36.6667 36.6666 29.2 36.6666 20C36.6666 10.8 29.2 3.33334 20 3.33334ZM20 32.9167C12.8833 32.9167 7.08331 27.1167 7.08331 20C7.08331 17.7333 7.68331 15.5167 8.79998 13.5667C9.13331 12.9667 9.89998 12.7667 10.5 13.1L20.6166 18.9167C21.2166 19.2667 21.4166 20.0167 21.0833 20.6167C20.7333 21.2167 19.9833 21.4167 19.3833 21.0833L10.4 15.9333C9.86665 17.2167 9.58331 18.6 9.58331 20C9.58331 25.75 14.25 30.4167 20 30.4167C25.75 30.4167 30.4166 25.75 30.4166 20C30.4166 14.25 25.75 9.58334 20 9.58334C17.7333 9.58334 15.5666 10.3 13.75 11.6667C13.2 12.0833 12.4166 11.9667 12 11.4167C11.5833 10.8667 11.7 10.0833 12.25 9.66668C14.5 7.98334 17.1833 7.08334 20 7.08334C27.1166 7.08334 32.9166 12.8833 32.9166 20C32.9166 27.1167 27.1166 32.9167 20 32.9167Z" fill="#292D32"/>
</g>
<defs>
<clipPath id="clip0_226_197">
<rect width="40" height="40" fill="white"/>
</clipPath>
</defs>
</svg>
