<svg width="27" height="27" viewBox="0 0 27 27" fill="none" xmlns="http://www.w3.org/2000/svg">
<path d="M22.545 7.67252L16.065 3.13877C14.2988 1.90127 11.5875 1.96877 9.88875 3.28502L4.2525 7.68377C3.1275 8.56127 2.23875 10.3613 2.23875 11.7788V19.5413C2.23875 22.41 4.5675 24.75 7.43625 24.75H19.5638C22.4325 24.75 24.7613 22.4213 24.7613 19.5525V11.925C24.7613 10.4063 23.7825 8.53877 22.545 7.67252ZM14.3438 20.25C14.3438 20.7113 13.9613 21.0938 13.5 21.0938C13.0388 21.0938 12.6563 20.7113 12.6563 20.25V16.875C12.6563 16.4138 13.0388 16.0313 13.5 16.0313C13.9613 16.0313 14.3438 16.4138 14.3438 16.875V20.25Z" fill="#11212D"/>
</svg>
