<svg width="27" height="28" viewBox="0 0 27 28" fill="none" xmlns="http://www.w3.org/2000/svg">
<path d="M12.4313 17.3187L10.35 19.4C9.91125 19.8387 9.21375 19.8387 8.76375 19.4112C8.64 19.2875 8.51625 19.175 8.3925 19.0513C7.23375 17.8812 6.1875 16.655 5.25375 15.3725C4.33125 14.09 3.58875 12.8075 3.04875 11.5363C2.52 10.2538 2.25 9.0275 2.25 7.8575C2.25 7.0925 2.385 6.36125 2.655 5.68625C2.925 5 3.3525 4.37 3.94875 3.8075C4.66875 3.09875 5.45625 2.75 6.28875 2.75C6.60375 2.75 6.91875 2.8175 7.2 2.9525C7.4925 3.0875 7.75125 3.29 7.95375 3.5825L10.5638 7.26125C10.7663 7.5425 10.9125 7.80125 11.0138 8.04875C11.115 8.285 11.1713 8.52125 11.1713 8.735C11.1713 9.005 11.0925 9.275 10.935 9.53375C10.7888 9.7925 10.575 10.0625 10.305 10.3325L9.45 11.2212C9.32625 11.345 9.27 11.4913 9.27 11.6713C9.27 11.7613 9.28125 11.84 9.30375 11.93C9.3375 12.02 9.37125 12.0875 9.39375 12.155C9.59625 12.5262 9.945 13.01 10.44 13.595C10.9462 14.18 11.4862 14.7762 12.0712 15.3725C12.1837 15.485 12.3075 15.5975 12.42 15.71C12.87 16.1488 12.8813 16.8687 12.4313 17.3187Z" fill="#11212D"/>
<path d="M24.7162 21.1213C24.7162 21.4363 24.66 21.7625 24.5475 22.0775C24.5137 22.1675 24.48 22.2575 24.435 22.3475C24.2437 22.7525 23.9962 23.135 23.67 23.495C23.1187 24.1025 22.5112 24.5413 21.825 24.8225C21.8137 24.8225 21.8025 24.8338 21.7912 24.8338C21.1275 25.1038 20.4075 25.25 19.6312 25.25C18.4837 25.25 17.2575 24.98 15.9637 24.4288C14.67 23.8775 13.3762 23.135 12.0937 22.2013C11.655 21.875 11.2162 21.5488 10.8 21.2L14.4787 17.5213C14.7937 17.7575 15.075 17.9375 15.3112 18.0613C15.3675 18.0838 15.435 18.1175 15.5137 18.1513C15.6037 18.185 15.6937 18.1963 15.795 18.1963C15.9862 18.1963 16.1325 18.1288 16.2562 18.005L17.1112 17.1613C17.3925 16.88 17.6625 16.6663 17.9212 16.5313C18.18 16.3738 18.4387 16.295 18.72 16.295C18.9337 16.295 19.1587 16.34 19.4062 16.4413C19.6537 16.5425 19.9125 16.6888 20.1937 16.88L23.9175 19.5238C24.21 19.7263 24.4125 19.9625 24.5362 20.2438C24.6487 20.525 24.7162 20.8063 24.7162 21.1213Z" fill="#292D32"/>
</svg>
