<svg width="40" height="40" viewBox="0 0 40 40" fill="none" xmlns="http://www.w3.org/2000/svg">
<g clip-path="url(#clip0_226_220)">
<path d="M25.65 8.68333L28 13.3833C28.3167 14.0333 29.1667 14.65 29.8833 14.7833L34.1333 15.4833C36.85 15.9333 37.4833 17.9 35.5333 19.8667L32.2167 23.1833C31.6667 23.7333 31.35 24.8167 31.5333 25.6L32.4833 29.7C33.2333 32.9333 31.5 34.2 28.65 32.5L24.6667 30.1333C23.95 29.7 22.75 29.7 22.0333 30.1333L18.05 32.5C15.2 34.1833 13.4667 32.9333 14.2167 29.7L15.1667 25.6C15.3167 24.8 15 23.7167 14.45 23.1667L11.1333 19.85C9.18334 17.9 9.81667 15.9333 12.5333 15.4667L16.7833 14.7667C17.5 14.65 18.35 14.0167 18.6667 13.3667L21.0167 8.66666C22.3 6.13333 24.3667 6.13333 25.65 8.68333Z" fill="#292D32"/>
<path d="M13.3333 9.58334H3.33333C2.64999 9.58334 2.08333 9.01668 2.08333 8.33334C2.08333 7.65001 2.64999 7.08334 3.33333 7.08334H13.3333C14.0167 7.08334 14.5833 7.65001 14.5833 8.33334C14.5833 9.01668 14.0167 9.58334 13.3333 9.58334Z" fill="#292D32"/>
<path d="M8.33333 32.9167H3.33333C2.64999 32.9167 2.08333 32.35 2.08333 31.6667C2.08333 30.9833 2.64999 30.4167 3.33333 30.4167H8.33333C9.01666 30.4167 9.58333 30.9833 9.58333 31.6667C9.58333 32.35 9.01666 32.9167 8.33333 32.9167Z" fill="#292D32"/>
<path d="M4.99999 21.25H3.33333C2.64999 21.25 2.08333 20.6833 2.08333 20C2.08333 19.3167 2.64999 18.75 3.33333 18.75H4.99999C5.68333 18.75 6.25 19.3167 6.25 20C6.25 20.6833 5.68333 21.25 4.99999 21.25Z" fill="#292D32"/>
</g>
<defs>
<clipPath id="clip0_226_220">
<rect width="40" height="40" fill="white"/>
</clipPath>
</defs>
</svg>
