<svg width="23" height="23" viewBox="0 0 23 23" fill="none" xmlns="http://www.w3.org/2000/svg">
<path d="M14.9309 11.5C14.9309 13.3975 13.3975 14.9308 11.5 14.9308C9.60255 14.9308 8.06921 13.3975 8.06921 11.5C8.06921 9.6025 9.60255 8.06917 11.5 8.06917C13.3975 8.06917 14.9309 9.6025 14.9309 11.5Z" stroke="#777577" stroke-width="1.5" stroke-linecap="round" stroke-linejoin="round"/>
<path d="M11.5 19.4254C14.8829 19.4254 18.0358 17.4321 20.2304 13.9821C21.0929 12.6308 21.0929 10.3596 20.2304 9.00833C18.0358 5.55834 14.8829 3.565 11.5 3.565C8.11706 3.565 4.96414 5.55834 2.76956 9.00833C1.90706 10.3596 1.90706 12.6308 2.76956 13.9821C4.96414 17.4321 8.11706 19.4254 11.5 19.4254Z" stroke="#777577" stroke-width="1.5" stroke-linecap="round" stroke-linejoin="round"/>
</svg>
