<svg width="198" height="53" viewBox="0 0 198 53" fill="none" xmlns="http://www.w3.org/2000/svg">
<g clip-path="url(#clip0_171_6323)">
<path d="M14.8025 33.97L11.6423 45.3793H10.1163L7.71866 35.9594L5.21175 45.3793H3.68576L0.525635 33.97H1.72502L4.44931 43.9394L7.17359 33.97H8.26374L10.8799 43.9394L13.7134 33.97H14.8025Z" fill="#015699"/>
<path d="M25.3752 45.3749H24.285V43.824C23.9622 44.4046 23.4831 44.8797 22.9041 45.1935C22.325 45.5074 21.6699 45.6469 21.0156 45.5958C20.3359 45.607 19.6633 45.4532 19.0538 45.1472C18.4798 44.881 17.9617 44.5048 17.5278 44.0393C17.1967 43.6516 16.9393 43.2048 16.7687 42.7216C16.5544 42.1943 16.442 41.6301 16.4377 41.0597C16.431 40.5239 16.5442 39.9936 16.7687 39.5087C16.994 38.991 17.2873 38.5067 17.6404 38.0688C18.0382 37.6414 18.5196 37.3033 19.0538 37.0764C19.6454 36.8482 20.2737 36.7341 20.9064 36.7399C21.5861 36.7288 22.2587 36.8826 22.8682 37.1885C23.4297 37.4821 23.8869 37.9468 24.1758 38.5174V36.8521H25.2648L25.3752 45.3816V45.3749ZM24.285 41.1662C24.297 40.7295 24.2155 40.2953 24.0461 39.8937C23.8767 39.4921 23.6236 39.1327 23.3041 38.8404C23.0098 38.5243 22.6549 38.2727 22.2613 38.1013C21.8678 37.9298 21.4438 37.8421 21.0156 37.8434C20.5711 37.8412 20.1305 37.9282 19.7191 38.0992C19.3077 38.2703 18.9335 38.5221 18.618 38.8404C18.3069 39.1395 18.0594 39.5001 17.8907 39.9001C17.722 40.3001 17.6357 40.731 17.637 41.1662C17.6251 41.6029 17.7066 42.0371 17.8759 42.4387C18.0453 42.8403 18.2985 43.1997 18.618 43.492C18.9335 43.8102 19.3077 44.0621 19.7191 44.2332C20.1305 44.4042 20.5711 44.4911 21.0156 44.489C21.4438 44.4903 21.8678 44.4026 22.2613 44.2311C22.6549 44.0597 23.0098 43.8081 23.3041 43.492C23.6236 43.1997 23.8767 42.8403 24.0461 42.4387C24.2155 42.0371 24.297 41.6029 24.285 41.1662Z" fill="#015699"/>
<path d="M31.6955 37.8479C31.1751 37.8639 30.6755 38.0593 30.2787 38.4019C29.9125 38.6275 29.641 38.9824 29.5163 39.3988C29.3762 39.7886 29.3382 40.2086 29.4059 40.6178V45.3749H28.3169V36.9642H29.4071V38.1821C29.6114 37.7173 29.9546 37.3296 30.388 37.0741C30.865 36.846 31.3868 36.731 31.914 36.7377L31.6955 37.8479Z" fill="#015699"/>
<path d="M37.1451 37.8479C36.6247 37.8639 36.1251 38.0593 35.7283 38.4019C35.3621 38.6275 35.0906 38.9824 34.9659 39.3988C34.8258 39.7886 34.7878 40.2086 34.8555 40.6178V45.3749H33.7665V36.9642H34.8566V38.1821C35.061 37.7173 35.4042 37.3296 35.8376 37.0741C36.3146 36.846 36.8364 36.731 37.3636 36.7377L37.1451 37.8479Z" fill="#015699"/>
<path d="M47.6075 45.3749H46.5173V43.824C46.1945 44.4046 45.7155 44.8797 45.1364 45.1935C44.5573 45.5074 43.9023 45.6469 43.248 45.5958C42.5682 45.607 41.8957 45.4532 41.2861 45.1472C40.7121 44.881 40.194 44.5048 39.7601 44.0393C39.4267 43.6485 39.1681 43.1978 38.9977 42.7104C38.7834 42.1831 38.671 41.6189 38.6667 41.0485C38.66 40.5127 38.7732 39.9823 38.9977 39.4975C39.4616 38.4455 40.2705 37.5898 41.2861 37.0764C41.8777 36.8482 42.506 36.7341 43.1387 36.7399C43.8185 36.7288 44.491 36.8826 45.1006 37.1885C45.662 37.4821 46.1192 37.9468 46.4081 38.5174V36.8521H47.4971L47.6075 45.3816V45.3749ZM46.5173 41.1662C46.5293 40.7295 46.4478 40.2953 46.2784 39.8937C46.109 39.4921 45.8559 39.1327 45.5364 38.8404C45.2421 38.5243 44.8872 38.2727 44.4937 38.1013C44.1001 37.9298 43.6762 37.8421 43.248 37.8434C42.8034 37.8412 42.3629 37.9282 41.9514 38.0992C41.54 38.2703 41.1658 38.5221 40.8503 38.8404C40.5392 39.1395 40.2918 39.5001 40.1231 39.9001C39.9544 40.3001 39.868 40.731 39.8694 41.1662C39.8574 41.6029 39.9389 42.0371 40.1083 42.4387C40.2776 42.8403 40.5308 43.1997 40.8503 43.492C41.1658 43.8102 41.54 44.0621 41.9514 44.2332C42.3629 44.4042 42.8034 44.4911 43.248 44.489C43.6762 44.4903 44.1001 44.4026 44.4937 44.2311C44.8872 44.0597 45.2421 43.8081 45.5364 43.492C45.875 43.2158 46.1415 42.8592 46.3126 42.4536C46.4836 42.048 46.5539 41.6059 46.5173 41.1662Z" fill="#015699"/>
<path d="M57.8525 45.3749H56.7624V40.9442C56.7851 40.5345 56.7479 40.1237 56.652 39.7252C56.5427 39.2999 56.3156 38.9153 55.9977 38.6172C55.7716 38.3534 55.4821 38.1535 55.1575 38.037C54.8329 37.9205 54.4841 37.8913 54.1451 37.9522C53.7377 37.9731 53.3348 38.0485 52.9468 38.1765C52.6372 38.371 52.3454 38.5936 52.0752 38.8415C51.8643 39.0993 51.7134 39.4021 51.6338 39.7274C51.5431 40.1268 51.506 40.5369 51.5235 40.9464V45.3749H50.441V36.9642H51.5312V38.1821C51.8112 37.7361 52.1982 37.37 52.6559 37.1181C53.1136 36.8662 53.6269 36.7368 54.1473 36.7422C54.7086 36.7466 55.2638 36.8609 55.7826 37.0786C56.2851 37.3094 56.7315 37.6498 57.0901 38.0756C57.4343 38.4419 57.6623 38.9048 57.7444 39.4045C57.8892 39.9076 57.9269 40.4363 57.8548 40.9554L57.8525 45.3749Z" fill="#015699"/>
<path d="M64.7178 37.9578H62.756V45.3793H61.6659V37.9578H59.9225V36.9609H61.6659V33.97H62.756V36.9609H64.7178V37.9578Z" fill="#015699"/>
<path d="M73.8727 36.9609L68.9681 48.3702H67.878L69.1855 45.1585L65.9172 36.9609H67.1166L69.8409 43.6064L72.5652 36.9609H73.8727Z" fill="#015699"/>
<path d="M88.0415 42.273C88.0535 42.7098 87.9719 43.1439 87.8026 43.5455C87.6332 43.9471 87.38 44.3065 87.0606 44.5988C86.745 44.917 86.3708 45.1689 85.9594 45.34C85.548 45.511 85.1074 45.598 84.6629 45.5958C83.7326 45.6011 82.8356 45.2444 82.156 44.5988C81.8225 44.2939 81.5611 43.9164 81.3913 43.4945C81.2214 43.0725 81.1475 42.617 81.1751 42.162H82.3733C82.3767 42.7802 82.6105 43.3741 83.0277 43.8239C83.3478 44.1564 83.7586 44.3836 84.2071 44.4763C84.6555 44.569 85.1211 44.5229 85.5435 44.344C85.9659 44.165 86.3259 43.8615 86.5768 43.4725C86.8278 43.0836 86.9582 42.6271 86.9513 42.162C86.9431 41.8537 86.8677 41.5512 86.7307 41.2761C86.6135 40.9767 86.4264 40.7107 86.1856 40.5012C85.973 40.2883 85.7106 40.1339 85.4231 40.0526C85.0921 39.9405 84.6607 39.8283 84.333 39.7162C83.9609 39.6354 83.5963 39.5228 83.2428 39.3798C82.9291 39.2358 82.6359 39.0494 82.3711 38.8258C82.0631 38.6117 81.8331 38.3003 81.7168 37.9398C81.5294 37.5636 81.4527 37.1403 81.4961 36.7209C81.4847 36.3004 81.5671 35.8828 81.7369 35.4992C81.9068 35.1157 82.1598 34.7762 82.4771 34.5061C83.1108 33.9416 83.9229 33.6273 84.7655 33.6201C85.5753 33.6282 86.3528 33.9443 86.9447 34.5061C87.227 34.7982 87.4495 35.1444 87.5991 35.5246C87.7487 35.9048 87.8226 36.3114 87.8164 36.7209H86.6236C86.6277 36.1881 86.4329 35.6736 86.0785 35.281C85.6408 34.9361 85.1062 34.742 84.5526 34.727C84.0322 34.7431 83.5326 34.9384 83.1358 35.281C82.7814 35.6736 82.5867 36.1881 82.5907 36.7209C82.5802 36.9437 82.6138 37.1665 82.6896 37.3759C82.7655 37.5853 82.8819 37.7771 83.0321 37.9398C83.481 38.3702 84.0544 38.6419 84.6673 38.7148C85.1665 38.8959 85.6761 39.0457 86.1933 39.1633C86.5975 39.3565 86.9662 39.6186 87.2835 39.9382C87.7768 40.6101 88.0442 41.4257 88.0459 42.264" fill="#015699"/>
<path d="M98.6108 41.6136H91.0912C91.0811 42.0023 91.1653 42.3874 91.3364 42.7352C91.5075 43.0829 91.7601 43.3825 92.0721 43.6075C92.6641 44.1692 93.4415 44.4852 94.2513 44.4934C94.8722 44.4795 95.4766 44.2875 95.9947 43.9394C96.5269 43.6419 96.9483 43.1751 97.1941 42.6106H98.3902C98.0144 43.7269 97.2177 44.6459 96.1753 45.1652C95.1329 45.6846 93.9302 45.7618 92.8318 45.3799C91.7334 44.998 90.8292 44.1883 90.3182 43.1289C89.8072 42.0694 89.7312 40.8471 90.107 39.7307C90.3228 39.0586 90.697 38.4503 91.1971 37.9589C91.5875 37.5346 92.0603 37.1973 92.5857 36.9686C93.1111 36.7398 93.6776 36.6245 94.2491 36.63C94.8367 36.6239 95.4195 36.7385 95.9626 36.9668C96.5056 37.1952 96.9976 37.5326 97.4092 37.9589C98.2211 38.9954 98.6456 40.2905 98.6075 41.6147M97.5174 40.5068C97.4005 39.7619 97.0111 39.0894 96.4272 38.6239C95.8497 38.1234 95.1156 37.8485 94.3567 37.8485C93.5977 37.8485 92.8636 38.1234 92.2862 38.6239C91.6985 39.1335 91.3114 39.8415 91.196 40.6178H97.5174V40.5068Z" fill="#015699"/>
<path d="M104.499 37.8479C103.974 37.8438 103.468 38.0418 103.082 38.4019C102.743 38.6476 102.481 38.9869 102.327 39.3794C102.172 39.772 102.132 40.2015 102.21 40.6167V45.3749H101.12V36.9642H102.21V38.1821C102.415 37.7173 102.758 37.3296 103.191 37.0741C103.668 36.846 104.19 36.731 104.717 36.7377L104.499 37.8479Z" fill="#015699"/>
<path d="M113.871 36.9609L110.383 45.3794H109.184L105.697 36.9609H106.896L109.839 43.9395L112.672 36.9609H113.871Z" fill="#015699"/>
<path d="M128.145 39.5087H126.838C126.555 38.9991 126.14 38.5776 125.638 38.2897C125.145 37.9876 124.579 37.8322 124.003 37.8412C123.128 37.8476 122.281 38.1605 121.606 38.7271C121.286 39.0195 121.033 39.3789 120.864 39.7804C120.694 40.182 120.613 40.6162 120.625 41.0529C120.617 41.4915 120.696 41.9272 120.857 42.334C121.019 42.7408 121.259 43.1103 121.565 43.4204C121.87 43.7306 122.233 43.9751 122.634 44.1392C123.034 44.3033 123.462 44.3838 123.894 44.3757C124.47 44.3847 125.036 44.2293 125.529 43.9271C126.062 43.643 126.512 43.2229 126.837 42.7081H128.035C127.683 43.5144 127.117 44.2049 126.4 44.702C125.696 45.1894 124.852 45.4235 124.002 45.367C122.804 45.3695 121.645 44.9377 120.733 44.1492C120.285 43.7531 119.934 43.2569 119.707 42.6996C119.48 42.1423 119.384 41.5391 119.425 40.9374C119.409 40.355 119.518 39.776 119.743 39.2404C119.969 38.7048 120.307 38.2255 120.733 37.8356C121.135 37.4035 121.628 37.0695 122.176 36.8586C122.723 36.6477 123.31 36.5654 123.893 36.6177C124.788 36.6006 125.666 36.8718 126.4 37.3926C127.204 37.8676 127.82 38.6117 128.143 39.4975" fill="#015699"/>
<path d="M138.935 41.6136H131.416C131.406 42.0023 131.49 42.3875 131.661 42.7352C131.832 43.0829 132.085 43.3825 132.397 43.6075C132.989 44.1692 133.766 44.4852 134.576 44.4934C135.197 44.4795 135.801 44.2875 136.319 43.9395C136.852 43.642 137.273 43.1751 137.519 42.6106H138.715C138.377 43.4583 137.807 44.1901 137.074 44.7199C136.34 45.2498 135.473 45.5556 134.574 45.6014C134.011 45.612 133.452 45.5098 132.928 45.3007C132.405 45.0915 131.927 44.7795 131.522 44.3824C131.104 43.9857 130.772 43.5051 130.547 42.9712C130.322 42.4372 130.209 41.8615 130.214 41.2806C130.198 40.6982 130.307 40.1191 130.532 39.5836C130.758 39.048 131.096 38.5687 131.522 38.1787C131.912 37.7544 132.385 37.4171 132.91 37.1884C133.436 36.9596 134.002 36.8443 134.574 36.8498C135.161 36.8437 135.744 36.9583 136.287 37.1866C136.83 37.415 137.322 37.7524 137.734 38.1787C138.171 38.6257 138.506 39.1655 138.713 39.7594C138.921 40.3532 138.997 40.9865 138.935 41.6136ZM137.845 40.5057C137.728 39.7609 137.339 39.0884 136.755 38.6228C136.178 38.1225 135.444 37.8477 134.685 37.8477C133.926 37.8477 133.192 38.1225 132.614 38.6228C132.026 39.1324 131.639 39.8404 131.524 40.6167H137.845V40.5057Z" fill="#015699"/>
<path d="M138.938 11.9286H135.341V23.8907H138.938V11.9286Z" fill="#015699"/>
<path d="M139.591 8.49475H134.796V10.2666H139.591V8.49475Z" fill="#015699"/>
<path d="M46.844 17.1342C46.8647 18.9005 47.5568 20.5903 48.7756 21.8497C49.9944 23.1091 51.6453 23.8404 53.3827 23.8907H55.5608V24.9987C55.5704 25.0984 55.5563 25.199 55.5196 25.2919C55.4828 25.3849 55.4246 25.4675 55.3498 25.5327C55.275 25.598 55.1858 25.6439 55.0898 25.6667C54.9938 25.6895 54.8939 25.6885 54.7984 25.6637H53.1653V29.2085C54.7966 29.0512 56.3125 28.2846 57.4198 27.0571C58.5271 25.8295 59.1472 24.2283 59.1601 22.563V12.0384H51.7486C50.4409 12.0767 49.1988 12.6293 48.284 13.5798C47.3691 14.5303 46.8529 15.8045 46.844 17.1342ZM55.6712 20.125H51.4209C51.2919 20.1256 51.1641 20.1002 51.0448 20.0503C50.9255 20.0004 50.8172 19.927 50.726 19.8343C50.6348 19.7416 50.5625 19.6315 50.5134 19.5103C50.4644 19.389 50.4394 19.2591 50.44 19.128V16.5802C50.4394 16.4491 50.4644 16.3192 50.5134 16.198C50.5625 16.0767 50.6348 15.9666 50.726 15.8739C50.8172 15.7812 50.9255 15.7078 51.0448 15.6579C51.1641 15.608 51.2919 15.5826 51.4209 15.5832H55.6712V20.125Z" fill="#015699"/>
<path d="M116.27 19.2391V8.49475H112.673V17.1297C112.667 18.0186 112.835 18.8998 113.167 19.7222C113.499 20.5445 113.988 21.2917 114.607 21.9202C115.225 22.5488 115.961 23.0463 116.77 23.3838C117.579 23.7212 118.446 23.892 119.32 23.8862H133.488V20.2304H117.249C117.12 20.231 116.993 20.2056 116.873 20.1557C116.754 20.1058 116.646 20.0324 116.554 19.9397C116.463 19.847 116.391 19.7369 116.342 19.6157C116.293 19.4945 116.268 19.3646 116.268 19.2335" fill="#015699"/>
<path d="M66.3531 19.6809V12.0384H62.7561V25.1086C62.7655 25.2983 62.7029 25.4846 62.5811 25.6288C62.4594 25.773 62.2878 25.8642 62.1018 25.8835H60.3584V29.4283C61.9233 29.2966 63.3896 28.5979 64.49 27.4593C65.5904 26.3208 66.2516 24.8183 66.3531 23.2257C67.2378 23.8662 68.328 24.143 69.4051 24.0006H86.0785V20.3448H67.0064C66.6753 20.2326 66.352 20.0084 66.352 19.6798" fill="#015699"/>
<path d="M107.331 24.5546C107.332 24.6857 107.307 24.8156 107.257 24.9368C107.208 25.058 107.136 25.1682 107.045 25.2609C106.954 25.3535 106.845 25.427 106.726 25.4769C106.607 25.5267 106.479 25.5521 106.35 25.5515H93.8177V12.0384H90.2206V29.2074H105.588C107.003 29.205 108.36 28.6324 109.361 27.615C110.362 26.5976 110.926 25.2185 110.928 23.7797V12.0384H107.332L107.331 24.5546Z" fill="#015699"/>
<path d="M100.574 12.0396C100.919 12.0396 101.256 11.9357 101.542 11.741C101.829 11.5463 102.053 11.2695 102.184 10.9458C102.316 10.622 102.351 10.2658 102.284 9.92206C102.216 9.57836 102.05 9.26264 101.807 9.01485C101.563 8.76705 101.252 8.59829 100.914 8.52992C100.576 8.46156 100.225 8.49666 99.9067 8.63076C99.5881 8.76487 99.3158 8.99197 99.1243 9.28334C98.9327 9.57472 98.8305 9.9173 98.8305 10.2677C98.8275 10.5012 98.8706 10.733 98.9571 10.9493C99.0437 11.1657 99.172 11.3622 99.3345 11.5273C99.497 11.6925 99.6903 11.8229 99.9032 11.9108C100.116 11.9988 100.344 12.0426 100.574 12.0396Z" fill="#015699"/>
<path d="M41.8313 25.8846C41.4864 25.8846 41.1494 25.9885 40.8627 26.1832C40.576 26.3779 40.3525 26.6546 40.2206 26.9784C40.0886 27.3021 40.0541 27.6584 40.1214 28.0021C40.1887 28.3458 40.3547 28.6615 40.5985 28.9093C40.8423 29.1571 41.153 29.3259 41.4911 29.3942C41.8293 29.4626 42.1799 29.4275 42.4984 29.2934C42.817 29.1593 43.0892 28.9322 43.2808 28.6408C43.4724 28.3494 43.5746 28.0069 43.5746 27.6564C43.5776 27.4229 43.5345 27.1911 43.448 26.9748C43.3614 26.7585 43.2331 26.562 43.0706 26.3968C42.9081 26.2317 42.7148 26.1013 42.5019 26.0133C42.289 25.9253 42.061 25.8816 41.8313 25.8846Z" fill="#015699"/>
<path d="M38.2342 25.8846C37.8894 25.8846 37.5523 25.9885 37.2656 26.1832C36.979 26.3779 36.7555 26.6546 36.6236 26.9784C36.4916 27.3021 36.4571 27.6584 36.5243 28.0021C36.5916 28.3458 36.7576 28.6615 37.0015 28.9093C37.2453 29.1571 37.5559 29.3259 37.8941 29.3942C38.2323 29.4626 38.5828 29.4275 38.9014 29.2934C39.2199 29.1593 39.4922 28.9322 39.6838 28.6408C39.8753 28.3494 39.9776 28.0069 39.9776 27.6564C39.9805 27.4229 39.9375 27.1911 39.8509 26.9748C39.7643 26.7585 39.636 26.562 39.4736 26.3968C39.3111 26.2317 39.1177 26.1013 38.9049 26.0133C38.692 25.9253 38.464 25.8816 38.2342 25.8846Z" fill="#015699"/>
<path d="M40.8504 12.0384V19.46C40.8598 19.6498 40.7972 19.836 40.6754 19.9802C40.5537 20.1244 40.382 20.2156 40.196 20.2349H22.4314C22.3333 20.2447 22.2343 20.2303 22.1428 20.193C22.0514 20.1556 21.9701 20.0964 21.9059 20.0204C21.8417 19.9444 21.7965 19.8538 21.7741 19.7562C21.7516 19.6586 21.7527 19.557 21.7771 19.46V12.0384H18.1756V24.5546C18.1762 24.6857 18.1512 24.8156 18.1021 24.9368C18.053 25.058 17.9808 25.1682 17.8896 25.2609C17.7984 25.3535 17.69 25.427 17.5707 25.4769C17.4515 25.5267 17.3237 25.5521 17.1947 25.5515H4.44936V12.0384H0.852295V29.2074H15.1291C19.4886 29.2074 21.4505 26.8815 21.6678 23.2257C22.3044 23.5768 23.0148 23.7668 23.7389 23.7797H38.7793C42.1579 23.6675 44.4463 20.5679 44.4463 17.1342V12.0384H40.8504Z" fill="#015699"/>
<path d="M117.031 35.854H115.941V34.1921H117.031V35.854ZM117.031 45.3794H115.941V36.9609H117.031V45.3794Z" fill="#015699"/>
<path d="M171.674 4.66886e-06C166.532 0.000226463 161.504 1.55035 157.228 4.45436C152.952 7.35838 149.62 11.4858 147.652 16.3148C145.684 21.1438 145.169 26.4575 146.173 31.5838C147.176 36.7101 149.653 41.4189 153.289 45.1147C156.926 48.8106 161.559 51.3274 166.603 52.347C171.647 53.3666 176.875 52.8432 181.626 50.843C186.378 48.8427 190.439 45.4555 193.296 41.1095C196.153 36.7636 197.678 31.6542 197.678 26.4274C197.68 22.9562 197.009 19.5188 195.702 16.3115C194.396 13.1043 192.481 10.1901 190.066 7.73573C187.651 5.28133 184.783 3.3348 181.628 2.00744C178.472 0.680088 175.09 -0.00205911 171.674 4.66886e-06ZM171.674 50.5973C166.973 50.5869 162.38 49.1605 158.476 46.4984C154.572 43.8362 151.532 40.0577 149.74 35.6404C147.948 31.223 147.485 26.3649 148.408 21.6798C149.332 16.9948 151.601 12.693 154.929 9.31809C158.256 5.94313 162.494 3.6464 167.106 2.71806C171.717 1.78972 176.496 2.27143 180.839 4.10234C185.181 5.93324 188.893 9.03119 191.503 13.0048C194.114 16.9783 195.508 21.6493 195.508 26.4274C195.511 29.6067 194.896 32.7554 193.699 35.6927C192.501 38.63 190.745 41.298 188.531 43.5437C186.316 45.7894 183.687 47.5685 180.795 48.779C177.902 49.9894 174.803 50.6074 171.674 50.5973Z" fill="#015699"/>
<path d="M179.76 7.92844V27.3402C179.768 27.7077 179.685 28.0714 179.52 28.3985C179.355 28.7256 179.113 29.0059 178.814 29.2141L171.723 34.2111L164.631 29.2623C164.338 29.0507 164.099 28.7703 163.934 28.445C163.769 28.1196 163.684 27.7588 163.686 27.3929V7.92844C166.217 6.78793 168.954 6.1987 171.723 6.1987C174.491 6.1987 177.229 6.78793 179.76 7.92844Z" fill="#015699"/>
<path d="M171.676 46.6566C167.556 46.6561 163.539 45.3567 160.176 42.9377C156.814 40.5187 154.273 37.0992 152.904 33.1507C151.535 29.2022 151.404 24.9192 152.531 20.8922C153.657 16.8652 155.985 13.2926 159.194 10.6669V29.2141C159.185 29.7245 159.301 30.2292 159.532 30.6823C159.763 31.1355 160.102 31.5228 160.518 31.8091L170.163 38.5847C170.619 38.8902 171.153 39.0531 171.699 39.0531C172.245 39.0531 172.78 38.8902 173.236 38.5847L182.928 31.8091C183.344 31.5228 183.683 31.1355 183.914 30.6823C184.145 30.2292 184.261 29.7245 184.252 29.2141V10.7107C187.438 13.3516 189.742 16.9296 190.848 20.954C191.955 24.9783 191.809 29.252 190.431 33.1888C189.053 37.1257 186.511 40.5329 183.153 42.9433C179.794 45.3537 175.785 46.6492 171.673 46.6522" fill="#015699"/>
</g>
<defs>
<clipPath id="clip0_171_6323">
<rect width="198" height="53" fill="white"/>
</clipPath>
</defs>
</svg>
